<?xml version="1.0" encoding="utf-8"?>
<svg viewBox="0 0 1024 1024" xmlns="http://www.w3.org/2000/svg" xmlns:bx="https://boxy-svg.com">
  <defs>
    <radialGradient id="gradient-1" gradientUnits="userSpaceOnUse" cx="152.286" cy="126.898" r="330" gradientTransform="matrix(0.638467, -1.091841, 1.097297, 0.641658, 52.727183, 218.434182)">
      <stop offset="0" style="stop-color: rgb(0, 170, 237);"/>
      <stop offset="1" style="stop-color: rgb(0, 145, 202);"/>
    </radialGradient>
    <linearGradient id="gradient-0" gradientUnits="userSpaceOnUse" x1="330" y1="0" x2="330" y2="660" gradientTransform="matrix(0.980745, -0.195296, 0.195753, 0.983035, -58.663244, 70.697931)">
      <stop offset="0" style="stop-color: rgb(152, 226, 255);"/>
      <stop offset="1" style="stop-color: rgb(78, 193, 239);"/>
    </linearGradient>
    <linearGradient gradientUnits="userSpaceOnUse" x1="512" y1="92" x2="512" y2="932" id="gradient-2">
      <stop offset="0" style="stop-color: rgb(101, 211, 255); stop-opacity: 0.5;"/>
      <stop offset="1" style="stop-color: rgb(102, 212, 255);"/>
    </linearGradient>
  </defs>
  <g transform="matrix(1.5, 0, 0, 1.5, 17, 17)">
    <g>
      <circle style="fill: url(#gradient-1); stroke: url(#gradient-0); stroke-width: 20px;" cx="330" cy="330" r="330"/>
      <circle style="fill: rgb(255, 255, 255); stroke: rgb(152, 226, 255); stroke-width: 20px;" cx="330.602" cy="330.52" r="75"/>
    </g>
  </g>
  <ellipse style="fill: none; stroke: rgb(101, 211, 255); stroke-width: 30px; stroke-opacity: 0.85;" cx="512" cy="512" rx="254.5" ry="254.5"/>
  <ellipse style="fill: none; stroke: url(#gradient-2); stroke-width: 25px; stroke-opacity: 0.85;" cx="512" cy="512" rx="420" ry="420"/>
  <ellipse style="fill: rgb(102, 211, 255);" cx="512" cy="512" rx="135" ry="135"/>
  <ellipse style="fill: rgb(152, 226, 255);" cx="512" cy="512" rx="105" ry="105"/>
  <ellipse style="fill: rgb(179, 233, 255);" cx="512" cy="512" rx="70" ry="70"/>
  <ellipse style="fill: rgb(255, 255, 255);" cx="512" cy="512" rx="50" ry="50"/>
  <g bx:origin="-0.297261 2.388684">
    <path style="fill: rgb(102, 211, 255);" d="M 559.796 261.866 L 645.901 261.322 L 690.135 290.03 L 720.584 366.266 L 653.464 337.312 L 612.824 311.236 L 559.796 261.866 Z"/>
    <path style="fill: rgb(152, 226, 255); fill-opacity: 0.7;" d="M 587.376 269.073 L 646.004 261.982 L 689.549 290.074 L 704.091 344.808 L 653.022 336.352 L 613.391 312.094 L 587.376 269.073 Z"/>
    <path style="fill: rgb(179, 233, 255); fill-opacity: 0.7;" d="M 608.651 276.593 L 645.702 269.684 L 681.791 293.685 L 688.052 328.174 L 653.91 327.554 L 621.362 307.063 L 608.651 276.593 Z"/>
    <path style="fill: rgb(255, 255, 255); fill-opacity: 0.7;" d="M 628.883 286.24 L 647.073 282.255 L 670.419 297.922 L 674.117 315.242 L 657.567 316.609 L 635.629 303.249 L 628.883 286.24 Z"/>
  </g>
  <g transform="matrix(-1, 0, 0, -1, 1024, 1024.000122)" bx:origin="-0.297261 2.388684">
    <path style="fill: rgb(102, 211, 255);" d="M 559.796 261.866 L 645.901 261.322 L 690.135 290.03 L 720.584 366.266 L 653.464 337.312 L 612.824 311.236 L 559.796 261.866 Z"/>
    <path style="fill: rgb(152, 226, 255); fill-opacity: 0.3;" d="M 587.376 269.073 L 646.004 261.982 L 689.549 290.074 L 704.091 344.808 L 653.022 336.352 L 613.391 312.094 L 587.376 269.073 Z"/>
    <path style="fill: rgb(179, 233, 255); fill-opacity: 0.3;" d="M 608.651 276.593 L 645.702 269.684 L 681.791 293.685 L 688.052 328.174 L 653.91 327.554 L 621.362 307.063 L 608.651 276.593 Z"/>
    <path style="fill: rgb(255, 255, 255); fill-opacity: 0.3;" d="M 628.883 286.24 L 647.073 282.255 L 670.419 297.922 L 674.117 315.242 L 657.567 316.609 L 635.629 303.249 L 628.883 286.24 Z"/>
  </g>
  <g transform="matrix(0.5, -0.866025, 0.866025, 0.5, -187.405045, 699.405457)" bx:origin="-0.297261 2.388684">
    <path style="fill: rgb(102, 211, 255);" d="M 559.796 261.866 L 645.901 261.322 L 690.135 290.03 L 720.584 366.266 L 653.464 337.312 L 612.824 311.236 L 559.796 261.866 Z"/>
    <path style="fill: rgb(152, 226, 255);" d="M 587.376 269.073 L 646.004 261.982 L 689.549 290.074 L 704.091 344.808 L 653.022 336.352 L 613.391 312.094 L 587.376 269.073 Z"/>
    <path style="fill: rgb(179, 233, 255);" d="M 608.651 276.593 L 645.702 269.684 L 681.791 293.685 L 688.052 328.174 L 653.91 327.554 L 621.362 307.063 L 608.651 276.593 Z"/>
    <path style="fill: rgb(255, 255, 255);" d="M 628.883 286.24 L 647.073 282.255 L 670.419 297.922 L 674.117 315.242 L 657.567 316.609 L 635.629 303.249 L 628.883 286.24 Z"/>
  </g>
  <g transform="matrix(-0.500001, 0.866025, -0.866025, -0.500001, 1211.405029, 324.595001)" bx:origin="-0.297261 2.388684">
    <path style="fill: rgb(102, 211, 255);" d="M 559.796 261.866 L 645.901 261.322 L 690.135 290.03 L 720.584 366.266 L 653.464 337.312 L 612.824 311.236 L 559.796 261.866 Z"/>
    <path style="fill: rgb(152, 226, 255); fill-opacity: 0.5;" d="M 587.376 269.073 L 646.004 261.982 L 689.549 290.074 L 704.091 344.808 L 653.022 336.352 L 613.391 312.094 L 587.376 269.073 Z"/>
    <path style="fill: rgb(179, 233, 255); fill-opacity: 0.5;" d="M 608.651 276.593 L 645.702 269.684 L 681.791 293.685 L 688.052 328.174 L 653.91 327.554 L 621.362 307.063 L 608.651 276.593 Z"/>
    <path style="fill: rgb(255, 255, 255); fill-opacity: 0.5;" d="M 628.883 286.24 L 647.073 282.255 L 670.419 297.922 L 674.117 315.242 L 657.567 316.609 L 635.629 303.249 L 628.883 286.24 Z"/>
  </g>
  <g transform="matrix(0.5, 0.866025, -0.866025, 0.5, 699.40509, -187.405014)" bx:origin="-0.297261 2.388684">
    <path style="fill: rgb(102, 211, 255);" d="M 559.796 261.866 L 645.901 261.322 L 690.135 290.03 L 720.584 366.266 L 653.464 337.312 L 612.824 311.236 L 559.796 261.866 Z"/>
    <path style="fill: rgb(152, 226, 255);" d="M 587.376 269.073 L 646.004 261.982 L 689.549 290.074 L 704.091 344.808 L 653.022 336.352 L 613.391 312.094 L 587.376 269.073 Z"/>
    <path style="fill: rgb(179, 233, 255);" d="M 608.651 276.593 L 645.702 269.684 L 681.791 293.685 L 688.052 328.174 L 653.91 327.554 L 621.362 307.063 L 608.651 276.593 Z"/>
    <path style="fill: rgb(255, 255, 255);" d="M 628.883 286.24 L 647.073 282.255 L 670.419 297.922 L 674.117 315.242 L 657.567 316.609 L 635.629 303.249 L 628.883 286.24 Z"/>
  </g>
  <g transform="matrix(-0.500001, -0.866025, 0.866025, -0.500001, 324.595001, 1211.405029)" bx:origin="-0.297261 2.388684">
    <path style="fill: rgb(102, 211, 255);" d="M 559.796 261.866 L 645.901 261.322 L 690.135 290.03 L 720.584 366.266 L 653.464 337.312 L 612.824 311.236 L 559.796 261.866 Z"/>
    <path style="fill: rgb(152, 226, 255); fill-opacity: 0.4;" d="M 587.376 269.073 L 646.004 261.982 L 689.549 290.074 L 704.091 344.808 L 653.022 336.352 L 613.391 312.094 L 587.376 269.073 Z"/>
    <path style="fill: rgb(179, 233, 255); fill-opacity: 0.4;" d="M 608.651 276.593 L 645.702 269.684 L 681.791 293.685 L 688.052 328.174 L 653.91 327.554 L 621.362 307.063 L 608.651 276.593 Z"/>
    <path style="fill: rgb(255, 255, 255); fill-opacity: 0.4;" d="M 628.883 286.24 L 647.073 282.255 L 670.419 297.922 L 674.117 315.242 L 657.567 316.609 L 635.629 303.249 L 628.883 286.24 Z"/>
  </g>
  <g>
    <path style="fill: rgb(102, 211, 255);" d="M 418.728 101.923 L 495.049 75.48 L 536.756 70.919 L 576.364 77.876 L 644.666 113.037 L 571.859 114.814 L 534.894 114.844 L 495.554 110.515 C 495.554 110.515 418.921 102.923 418.728 101.923 Z"/>
    <path style="fill: rgb(152, 226, 255);" d="M 451.585 98.338 L 497.443 79.711 L 536.462 76.377 L 573.23 82.009 L 612.655 105.276 L 568.903 110.508 L 535.205 110.048 L 497.584 105.827 L 451.585 98.338 Z"/>
    <path style="fill: rgb(179, 233, 255);" d="M 480.701 95.127 L 500 84.122 L 536.316 82.123 L 569.168 86.92 L 586.625 100 L 566.472 105.16 L 535.437 104.426 L 500 100 L 480.701 95.127 Z"/>
  </g>
  <g transform="matrix(-0.5, -0.866025, 0.866025, -0.5, 324.59494, 1211.404907)" bx:origin="0.412821 10.041684">
    <path style="fill: rgb(102, 211, 255);" d="M 418.728 101.923 L 495.049 75.48 L 536.756 70.919 L 576.364 77.876 L 644.666 113.037 L 571.859 114.814 L 534.894 114.844 L 495.554 110.515 C 495.554 110.515 418.921 102.923 418.728 101.923 Z"/>
    <path style="fill: rgb(152, 226, 255); fill-opacity: 0.4;" d="M 451.585 98.338 L 497.443 79.711 L 536.462 76.377 L 573.23 82.009 L 612.655 105.276 L 568.903 110.508 L 535.205 110.048 L 497.584 105.827 L 451.585 98.338 Z"/>
    <path style="fill: rgb(179, 233, 255); fill-opacity: 0.4;" d="M 480.701 95.127 L 500 84.122 L 536.316 82.123 L 569.168 86.92 L 586.625 100 L 566.472 105.16 L 535.437 104.426 L 500 100 L 480.701 95.127 Z"/>
  </g>
  <g transform="matrix(0.5, -0.866025, 0.866025, 0.5, -187.405029, 699.404968)" bx:origin="0.412821 10.041684">
    <path style="fill: rgb(102, 211, 255);" d="M 418.728 101.923 L 495.049 75.48 L 536.756 70.919 L 576.364 77.876 L 644.666 113.037 L 571.859 114.814 L 534.894 114.844 L 495.554 110.515 C 495.554 110.515 418.921 102.923 418.728 101.923 Z"/>
    <path style="fill: rgb(152, 226, 255);" d="M 451.585 98.338 L 497.443 79.711 L 536.462 76.377 L 573.23 82.009 L 612.655 105.276 L 568.903 110.508 L 535.205 110.048 L 497.584 105.827 L 451.585 98.338 Z"/>
    <path style="fill: rgb(179, 233, 255);" d="M 480.701 95.127 L 500 84.122 L 536.316 82.123 L 569.168 86.92 L 586.625 100 L 566.472 105.16 L 535.437 104.426 L 500 100 L 480.701 95.127 Z"/>
  </g>
  <g transform="matrix(0.5, 0.866025, -0.866025, 0.5, 699.404968, -187.404968)" bx:origin="0.412821 10.041684">
    <path style="fill: rgb(102, 211, 255);" d="M 418.728 101.923 L 495.049 75.48 L 536.756 70.919 L 576.364 77.876 L 644.666 113.037 L 571.859 114.814 L 534.894 114.844 L 495.554 110.515 C 495.554 110.515 418.921 102.923 418.728 101.923 Z"/>
    <path style="fill: rgb(152, 226, 255);" d="M 451.585 98.338 L 497.443 79.711 L 536.462 76.377 L 573.23 82.009 L 612.655 105.276 L 568.903 110.508 L 535.205 110.048 L 497.584 105.827 L 451.585 98.338 Z"/>
    <path style="fill: rgb(179, 233, 255);" d="M 480.701 95.127 L 500 84.122 L 536.316 82.123 L 569.168 86.92 L 586.625 100 L 566.472 105.16 L 535.437 104.426 L 500 100 L 480.701 95.127 Z"/>
  </g>
  <g transform="matrix(-0.5, 0.866025, -0.866025, -0.5, 1211.404907, 324.595032)" bx:origin="0.412821 10.041684">
    <path style="fill: rgb(102, 211, 255);" d="M 418.728 101.923 L 495.049 75.48 L 536.756 70.919 L 576.364 77.876 L 644.666 113.037 L 571.859 114.814 L 534.894 114.844 L 495.554 110.515 C 495.554 110.515 418.921 102.923 418.728 101.923 Z"/>
    <path style="fill: rgb(152, 226, 255); fill-opacity: 0.7;" d="M 451.585 98.338 L 497.443 79.711 L 536.462 76.377 L 573.23 82.009 L 612.655 105.276 L 568.903 110.508 L 535.205 110.048 L 497.584 105.827 L 451.585 98.338 Z"/>
    <path style="fill: rgb(179, 233, 255); fill-opacity: 0.7;" d="M 480.701 95.127 L 500 84.122 L 536.316 82.123 L 569.168 86.92 L 586.625 100 L 566.472 105.16 L 535.437 104.426 L 500 100 L 480.701 95.127 Z"/>
  </g>
  <g transform="matrix(-1, 0, 0, -1, 1023.999939, 1024)" bx:origin="0.412821 10.041684">
    <path style="fill: rgb(102, 211, 255);" d="M 418.728 101.923 L 495.049 75.48 L 536.756 70.919 L 576.364 77.876 L 644.666 113.037 L 571.859 114.814 L 534.894 114.844 L 495.554 110.515 C 495.554 110.515 418.921 102.923 418.728 101.923 Z"/>
    <path style="fill: rgb(152, 226, 255);" d="M 451.585 98.338 L 497.443 79.711 L 536.462 76.377 L 573.23 82.009 L 612.655 105.276 L 568.903 110.508 L 535.205 110.048 L 497.584 105.827 L 451.585 98.338 Z"/>
    <path style="fill: rgb(179, 233, 255);" d="M 480.701 95.127 L 500 84.122 L 536.316 82.123 L 569.168 86.92 L 586.625 100 L 566.472 105.16 L 535.437 104.426 L 500 100 L 480.701 95.127 Z"/>
  </g>
</svg>